<?xml version="1.0" standalone="no"?>
<!DOCTYPE svg PUBLIC "-//W3C//DTD SVG 20010904//EN"
 "http://www.w3.org/TR/2001/REC-SVG-20010904/DTD/svg10.dtd">
<svg version="1.0" xmlns="http://www.w3.org/2000/svg"
 width="800.000000pt" height="122.000000pt" viewBox="0 0 800.000000 122.000000"
 preserveAspectRatio="xMidYMid meet">

<g transform="translate(0.000000,122.000000) scale(0.100000,-0.100000)"
fill="#000000" stroke="none">
<path d="M508 1163 c-28 -34 -248 -442 -248 -461 0 -10 8 -26 18 -35 17 -15
66 -17 499 -17 452 0 481 -1 496 -18 10 -10 17 -24 17 -31 0 -6 -31 -58 -69
-114 l-68 -102 -62 1 c-33 0 -64 4 -68 7 -3 4 2 32 12 62 31 91 56 86 -430 85
-235 0 -425 -5 -435 -10 -22 -12 -130 -208 -130 -237 0 -55 -39 -53 1012 -53
l967 0 133 223 c73 122 137 234 142 249 6 20 4 34 -8 53 l-16 25 -493 0 c-270
0 -502 3 -514 6 -12 3 -24 12 -26 19 -3 6 22 58 55 114 l61 102 76 -3 c86 -3
98 -16 62 -67 -26 -36 -26 -53 -3 -74 16 -15 69 -17 493 -19 l474 -3 3 -26 c3
-24 -25 -77 -357 -691 -53 -99 -50 -102 129 -106 l142 -3 492 190 c565 218
1054 408 1441 558 149 58 290 112 315 120 58 20 74 35 65 62 -6 21 -7 21 -495
21 l-488 0 -520 -195 c-299 -112 -527 -193 -536 -189 -28 11 -18 37 59 167 74
125 89 169 63 195 -8 8 -55 12 -144 12 -152 0 -163 6 -119 70 30 44 32 69 4
104 l-20 26 -983 0 c-924 0 -984 -1 -998 -17z"/>
<path d="M6332 1003 c-26 -24 -212 -356 -212 -380 0 -10 7 -29 16 -41 l15 -22
390 0 c339 0 390 -2 395 -15 4 -9 -14 -47 -42 -90 -49 -74 -49 -75 -93 -75
-37 0 -42 2 -36 18 17 45 17 73 0 92 -17 19 -32 20 -344 19 -179 -1 -337 -4
-351 -8 -18 -5 -39 -32 -77 -96 -57 -99 -62 -124 -34 -149 17 -16 78 -17 806
-17 433 0 789 2 790 3 1 2 53 88 115 191 96 162 111 193 106 219 -12 58 -5 57
-443 58 -222 0 -403 2 -403 5 0 2 21 38 46 80 l47 75 48 0 48 0 -6 -35 c-4
-23 0 -43 11 -60 l16 -25 353 0 c401 0 374 -6 431 89 44 72 48 120 11 156
l-24 25 -779 0 c-728 0 -781 -1 -800 -17z m1588 -49 c10 -26 -20 -98 -57 -136
l-27 -28 -343 0 c-267 0 -343 3 -344 13 0 6 0 31 1 55 l2 42 -66 2 c-36 0 -70
1 -75 2 -11 1 -121 -170 -121 -189 0 -6 8 -19 18 -28 16 -15 64 -17 423 -19
l404 -3 0 -25 c0 -14 -45 -101 -100 -193 l-100 -167 -777 0 c-428 0 -778 4
-778 8 0 12 71 145 88 165 14 16 43 17 345 17 l329 0 -6 -25 c-3 -14 -9 -36
-12 -48 -10 -40 19 -58 85 -55 l56 3 57 85 c63 93 71 129 36 154 -19 14 -75
16 -410 16 -352 0 -388 2 -388 16 0 9 22 55 49 103 27 47 70 125 96 174 l47
87 780 -2 781 -3 7 -21z"/>
<path d="M3876 556 c-9 -14 -23 -38 -32 -53 -53 -86 -123 -228 -116 -235 5 -5
156 -7 337 -6 l328 3 44 79 c33 61 41 82 32 92 -9 11 -49 14 -175 14 -90 0
-164 3 -164 6 0 3 7 19 17 34 l16 28 194 7 c149 6 193 10 193 21 0 7 -3 15 -7
17 -5 3 -153 8 -330 12 l-321 7 -16 -26z m277 -172 c12 -12 -24 -65 -50 -75
-39 -15 -47 2 -23 45 21 34 55 48 73 30z"/>
<path d="M4551 490 c-28 -49 -51 -92 -51 -95 0 -3 83 -5 185 -5 127 0 185 -3
185 -11 0 -6 -9 -24 -21 -40 l-20 -29 -192 -2 c-191 -3 -192 -3 -195 -25 l-3
-23 333 0 333 0 47 82 c35 61 44 85 36 95 -8 10 -53 13 -179 13 -93 0 -169 2
-169 4 0 3 10 21 21 41 l22 37 191 -4 c180 -3 191 -2 194 16 2 10 -2 22 -10
27 -7 5 -158 9 -335 9 l-322 0 -50 -90z"/>
<path d="M5257 438 c-47 -79 -89 -151 -92 -160 -7 -17 13 -18 324 -18 182 0
334 -1 339 -2 8 -2 171 271 172 289 0 29 -44 33 -348 33 l-309 0 -86 -142z
m393 72 c0 -6 -23 -51 -51 -100 -36 -63 -57 -90 -70 -90 -11 0 -19 4 -19 9 0
4 23 49 51 100 36 65 56 91 70 91 10 0 19 -5 19 -10z"/>
</g>
</svg>
